<?xml version="1.0" encoding="UTF-8" ?><svg xmlns="http://www.w3.org/2000/svg" width="2.75in" height="3.875in" viewBox="0 0 2.75 3.875"><polygon points="0,0 2.75,0 2.75,3.615 2.7125,3.615 2.7125,3.875 0.0375,3.875, 0.0375,3.615 0,3.615" fill="none" stroke="green" stroke-width="1px" vector-effect="non-scaling-stroke" /><g transform="rotate(90 0 1.9375)"><path d="M -0.043 1.6775 L 0.043 1.6775 L 0.043 1.7775 L 0.1 1.7775 L 0.1 1.8475 L 0.043 1.8475 L 0.043 1.9375 L -0.043 1.9375 L -0.043 1.8475 L -0.1 1.8475 L -0.1 1.7775 L -0.043 1.7775 Z" fill="none" stroke="white" stroke-width="1px" vector-effect="non-scaling-stroke" /></g><g transform="rotate(270 2.75 1.9375)"><path d="M 2.707 1.6775 L 2.793 1.6775 L 2.793 1.7775 L 2.85 1.7775 L 2.85 1.8475 L 2.793 1.8475 L 2.793 1.9375 L 2.707 1.9375 L 2.707 1.8475 L 2.65 1.8475 L 2.65 1.7775 L 2.707 1.7775 Z" fill="none" stroke="white" stroke-width="1px" vector-effect="non-scaling-stroke" /></g></svg>