<?xml version="1.0" encoding="UTF-8" ?>
    <svg xmlns="http://www.w3.org/2000/svg" version="1.1" 
        width="4.75in" height="1.875in" viewBox="0 0 4.75 1.875">
        <rect x="0" y="0" width="4.75" height="1.875"
            fill="none" 
            stroke="white"
            stroke-width="1px" 
            vector-effect="non-scaling-stroke"
        />
    <g transform="rotate(90 0 0.9375)"><path d="M -0.043 0.6875 L 0.043 0.6875 L 0.043 0.77750003 L 0.1 0.77750003 L 0.1 0.84749997 L 0.043 0.84749997 L 0.043 0.9375 L -0.043 0.9375 L -0.043 0.84749997 L -0.1 0.84749997 L -0.1 0.77750003 L -0.043 0.77750003 Z" fill="none" stroke="white" stroke-width="1px" vector-effect="non-scaling-stroke" /></g><g transform="rotate(270 4.75 0.9375)"><path d="M 4.707 0.6875 L 4.793 0.6875 L 4.793 0.77750003 L 4.85 0.77750003 L 4.85 0.84749997 L 4.793 0.84749997 L 4.793 0.9375 L 4.707 0.9375 L 4.707 0.84749997 L 4.65 0.84749997 L 4.65 0.77750003 L 4.707 0.77750003 Z" fill="none" stroke="white" stroke-width="1px" vector-effect="non-scaling-stroke" /></g></svg>