<?xml version="1.0" encoding="UTF-8" ?><svg xmlns="http://www.w3.org/2000/svg" width="3.75in" height="2.875in" viewBox="0 0 3.75 2.875"><polygon points="0,0 3.75,0 3.75,2.615 3.7125,2.615 3.7125,2.875 0.0375,2.875, 0.0375,2.615 0,2.615" fill="none" stroke="green" stroke-width="1px" vector-effect="non-scaling-stroke" /><g transform="rotate(90 0 1.4375)"><path d="M -0.043 1.1775 L 0.043 1.1775 L 0.043 1.2775 L 0.1 1.2775 L 0.1 1.3475 L 0.043 1.3475 L 0.043 1.4375 L -0.043 1.4375 L -0.043 1.3475 L -0.1 1.3475 L -0.1 1.2775 L -0.043 1.2775 Z" fill="none" stroke="white" stroke-width="1px" vector-effect="non-scaling-stroke" /></g><g transform="rotate(270 3.75 1.4375)"><path d="M 3.707 1.1775 L 3.793 1.1775 L 3.793 1.2775 L 3.85 1.2775 L 3.85 1.3475 L 3.793 1.3475 L 3.793 1.4375 L 3.707 1.4375 L 3.707 1.3475 L 3.65 1.3475 L 3.65 1.2775 L 3.707 1.2775 Z" fill="none" stroke="white" stroke-width="1px" vector-effect="non-scaling-stroke" /></g></svg>