<?xml version="1.0" encoding="UTF-8" ?><svg xmlns="http://www.w3.org/2000/svg" width="2.75in" height="2.875in" viewBox="0 0 2.75 2.875"><rect x="0" y="0" width="2.75" height="2.875" fill="none" stroke="green" stroke-width="1px" vector-effect="non-scaling-stroke" /><g transform="rotate(90 0 1.4375)"><path d="M -0.043 1.1875 L 0.043 1.1875 L 0.043 1.2775 L 0.1 1.2775 L 0.1 1.3475 L 0.043 1.3475 L 0.043 1.4375 L -0.043 1.4375 L -0.043 1.3475 L -0.1 1.3475 L -0.1 1.2775 L -0.043 1.2775 Z" fill="none" stroke="white" stroke-width="1px" vector-effect="non-scaling-stroke" /></g><g transform="rotate(270 2.75 1.4375)"><path d="M 2.707 1.1875 L 2.793 1.1875 L 2.793 1.2775 L 2.85 1.2775 L 2.85 1.3475 L 2.793 1.3475 L 2.793 1.4375 L 2.707 1.4375 L 2.707 1.3475 L 2.65 1.3475 L 2.65 1.2775 L 2.707 1.2775 Z" fill="none" stroke="white" stroke-width="1px" vector-effect="non-scaling-stroke" /></g></svg>