<?xml version="1.0" encoding="UTF-8" ?><svg xmlns="http://www.w3.org/2000/svg" width="7in" height="2.875in" viewBox="0 0 7 2.875"><rect x="0" y="0" width="7" height="2.875" fill="none" stroke="green" stroke-width="1px" vector-effect="non-scaling-stroke" /><text x="3.5" y="1.4375" transform="rotate(0 3.5 1.4375)" font-family="Arial, sans-serif" font-size="1.25" text-anchor="middle" dominant-baseline="middle" fill="blue" stroke="none">Faker</text><g transform="rotate(0 0.245 2.875)"><path d="M 0.202 2.615 L 0.28800002 2.615 L 0.28800002 2.715 L 0.345 2.715 L 0.345 2.785 L 0.28800002 2.785 L 0.28800002 2.875 L 0.202 2.875 L 0.202 2.785 L 0.14500001 2.785 L 0.14500001 2.715 L 0.202 2.715 Z" fill="none" stroke="white" stroke-width="1px" vector-effect="non-scaling-stroke" /></g><g transform="rotate(0 6.755 2.875)"><path d="M 6.712 2.615 L 6.7980003 2.615 L 6.7980003 2.715 L 6.855 2.715 L 6.855 2.785 L 6.7980003 2.785 L 6.7980003 2.875 L 6.712 2.875 L 6.712 2.785 L 6.655 2.785 L 6.655 2.715 L 6.712 2.715 Z" fill="none" stroke="white" stroke-width="1px" vector-effect="non-scaling-stroke" /></g><circle cx="0.0625" cy="1.4375" r="0.043" fill="none" stroke="white" stroke-width="1px" vector-effect="non-scaling-stroke"/><circle cx="6.9375" cy="1.4375" r="0.043" fill="none" stroke="white" stroke-width="1px" vector-effect="non-scaling-stroke"/><circle cx="1.1875" cy="1.4375" r="0.043" fill="none" stroke="white" stroke-width="1px" vector-effect="non-scaling-stroke"/><circle cx="2.8125" cy="1.4375" r="0.043" fill="none" stroke="white" stroke-width="1px" vector-effect="non-scaling-stroke"/><circle cx="4.9375" cy="1.4375" r="0.043" fill="none" stroke="white" stroke-width="1px" vector-effect="non-scaling-stroke"/><circle cx="6.0625" cy="1.4375" r="0.043" fill="none" stroke="white" stroke-width="1px" vector-effect="non-scaling-stroke"/><g transform="rotate(0 2.3333333 2.875)"><path d="M 2.2903333 2.615 L 2.3763332 2.615 L 2.3763332 2.715 L 2.4333332 2.715 L 2.4333332 2.785 L 2.3763332 2.785 L 2.3763332 2.875 L 2.2903333 2.875 L 2.2903333 2.785 L 2.2333333 2.785 L 2.2333333 2.715 L 2.2903333 2.715 Z" fill="none" stroke="white" stroke-width="1px" vector-effect="non-scaling-stroke" /></g><g transform="rotate(0 4.6666665 2.875)"><path d="M 4.6236663 2.615 L 4.7096667 2.615 L 4.7096667 2.715 L 4.7666664 2.715 L 4.7666664 2.785 L 4.7096667 2.785 L 4.7096667 2.875 L 4.6236663 2.875 L 4.6236663 2.785 L 4.5666666 2.785 L 4.5666666 2.715 L 4.6236663 2.715 Z" fill="none" stroke="white" stroke-width="1px" vector-effect="non-scaling-stroke" /></g></svg>