<?xml version="1.0" encoding="UTF-8" ?><svg xmlns="http://www.w3.org/2000/svg" width="6in" height="3.875in" viewBox="0 0 6 3.875"><rect x="0" y="0" width="6" height="3.875" fill="none" stroke="green" stroke-width="1px" vector-effect="non-scaling-stroke" /><text x="3" y="1.9375" transform="rotate(0 3 1.9375)" font-family="Arial, sans-serif" font-size="1.25" text-anchor="middle" dominant-baseline="middle" fill="blue" stroke="none">Lebron</text><g transform="rotate(0 0.245 3.875)"><path d="M 0.202 3.615 L 0.28800002 3.615 L 0.28800002 3.715 L 0.345 3.715 L 0.345 3.785 L 0.28800002 3.785 L 0.28800002 3.875 L 0.202 3.875 L 0.202 3.785 L 0.14500001 3.785 L 0.14500001 3.715 L 0.202 3.715 Z" fill="none" stroke="white" stroke-width="1px" vector-effect="non-scaling-stroke" /></g><g transform="rotate(0 5.755 3.875)"><path d="M 5.712 3.615 L 5.7980003 3.615 L 5.7980003 3.715 L 5.855 3.715 L 5.855 3.785 L 5.7980003 3.785 L 5.7980003 3.875 L 5.712 3.875 L 5.712 3.785 L 5.655 3.785 L 5.655 3.715 L 5.712 3.715 Z" fill="none" stroke="white" stroke-width="1px" vector-effect="non-scaling-stroke" /></g><circle cx="0.0625" cy="1.9375" r="0.043" fill="none" stroke="white" stroke-width="1px" vector-effect="non-scaling-stroke"/><circle cx="5.9375" cy="1.9375" r="0.043" fill="none" stroke="white" stroke-width="1px" vector-effect="non-scaling-stroke"/><circle cx="1.1875" cy="1.9375" r="0.043" fill="none" stroke="white" stroke-width="1px" vector-effect="non-scaling-stroke"/><circle cx="3.3125" cy="1.9375" r="0.043" fill="none" stroke="white" stroke-width="1px" vector-effect="non-scaling-stroke"/><circle cx="4.4375" cy="1.9375" r="0.043" fill="none" stroke="white" stroke-width="1px" vector-effect="non-scaling-stroke"/><g transform="rotate(0 2 3.875)"><path d="M 1.957 3.615 L 2.043 3.615 L 2.043 3.715 L 2.1 3.715 L 2.1 3.785 L 2.043 3.785 L 2.043 3.875 L 1.957 3.875 L 1.957 3.785 L 1.9 3.785 L 1.9 3.715 L 1.957 3.715 Z" fill="none" stroke="white" stroke-width="1px" vector-effect="non-scaling-stroke" /></g><g transform="rotate(0 4 3.875)"><path d="M 3.957 3.615 L 4.043 3.615 L 4.043 3.715 L 4.1 3.715 L 4.1 3.785 L 4.043 3.785 L 4.043 3.875 L 3.957 3.875 L 3.957 3.785 L 3.9 3.785 L 3.9 3.715 L 3.957 3.715 Z" fill="none" stroke="white" stroke-width="1px" vector-effect="non-scaling-stroke" /></g></svg>